<svg width="16" height="16" viewBox="0 0 16 16" fill="none" xmlns="http://www.w3.org/2000/svg" xmlns:xlink="http://www.w3.org/1999/xlink" aria-hidden="true" data="image" >
<path fill-rule="evenodd" clip-rule="evenodd" d="M2.9886 4.41648V14.3855H10.6762V4.41648H2.9886ZM1.55051 4.29556C1.55051 3.57886 2.12537 2.97839 2.85831 2.97839H10.8065C11.5394 2.97839 12.1143 3.57886 12.1143 4.29556V14.5064C12.1143 15.2232 11.5394 15.8236 10.8065 15.8236H2.85831C2.12537 15.8236 1.55051 15.2232 1.55051 14.5064V4.29556Z" fill="black"/>
<path fill-rule="evenodd" clip-rule="evenodd" d="M5.3238 2.41896V1.61436H13.0114V11.5834H12.6196V13.0215H13.1417C13.8747 13.0215 14.4495 12.421 14.4495 11.7043V1.49344C14.4495 0.776735 13.8747 0.17627 13.1417 0.17627H5.19351C4.46057 0.17627 3.88571 0.776735 3.88571 1.49344V2.41896H5.3238Z" fill="black"/>
<path fill-rule="evenodd" clip-rule="evenodd" d="M8.17493 11.3162V10.0601L8.46936 9.29565H8.47791V10.3162H8.92957V8.55469H8.33142L8.17493 8.97609V7.55469H11.4176V11.3162H8.17493ZM9.17493 8.55469V10.3162H10.4176V9.90601H9.6925V9.62646H10.3724V9.24561H9.6925V8.96484H10.4176V8.55469H9.17493Z" fill="black"/>
<path fill-rule="evenodd" clip-rule="evenodd" d="M5.94592 11.3162V9.96582H6.15125L6.2428 10.3162H6.78723L6.21228 8.55469H5.94592V7.55469H9.92957V8.55469H9.17493V10.3162H9.92957V11.3162H5.94592ZM8.92957 10.3162V8.55469H8.33142L7.94202 9.60327H7.93347L7.54407 8.55469H6.94592V10.3162H7.39758V9.29608L7.40613 9.29565L7.79919 10.3162H8.07629L8.46936 9.29565H8.47774L8.47791 10.3162H8.92957ZM9.92957 9.90601V9.62646H9.6925V9.90601H9.92957ZM9.92957 9.24561V8.96484H9.6925V9.24561H9.92957ZM5.94592 9.60083V9.1793L6.05603 9.60083H5.94592Z" fill="black"/>
<path fill-rule="evenodd" clip-rule="evenodd" d="M3.60959 11.3162L4.08672 9.85438L4.4032 10.3162H4.82922V8.55469H4.51094L4.83735 7.55469H6.9378L7.2642 8.55469H6.94592V10.3162H7.39758V9.29565H7.40613L7.79919 10.3162H7.83915L8.16556 11.3162H3.60959ZM6.78723 10.3162L6.21228 8.55469H5.56286L4.98791 10.3162H5.53235L5.6239 9.96582H6.15124L6.2428 10.3162H6.78723ZM5.71911 9.60083H6.05603L5.89245 8.97461H5.88269L5.71911 9.60083ZM4.31164 9.16528L4.24455 9.37084L4.3031 9.45557H4.31164V9.16528Z" fill="black"/>
<path fill-rule="evenodd" clip-rule="evenodd" d="M2.24963 11.3162V7.55469H5.82922V8.55469H5.56287L4.98792 10.3162H5.53235L5.6239 9.96582H5.82922V11.3162H2.24963ZM3.24963 10.3162H3.76721V9.40063H3.77576L4.4032 10.3162H4.82922V8.55469H4.31165V9.45557H4.3031L3.68054 8.55469H3.24963V10.3162ZM5.82922 9.1793V9.60083H5.71912L5.82922 9.1793Z" fill="black"/>
</svg>
